<svg width="476" height="300" viewBox="0 0 476 300" fill="none" xmlns="http://www.w3.org/2000/svg">
<path fill-rule="evenodd" clip-rule="evenodd" d="M14 286V14H222V29H238V14H462V286H14ZM0 8.99999C0 4.02943 4.02944 0 9 0H467C471.971 0 476 4.02944 476 9V291C476 295.971 471.971 300 467 300H8.99999C4.02943 300 0 295.971 0 291V8.99999ZM49 251V233.194C49.1237 233.036 49.2417 232.872 49.3536 232.702L91.9857 167.693C92.7587 166.515 93.8231 165.556 95.0759 164.91L95.3206 164.784C96.319 164.269 97.426 164 98.5493 164H99.0752C100.011 164 100.929 164.255 101.73 164.737C102.549 165.23 103.215 165.941 103.653 166.791L122.239 202.858L147.049 251H49ZM80.2786 160.016L49 207.712V143.5H99.4789C106.101 143.5 112.47 140.959 117.274 136.402L118.688 135.061C128.466 125.784 128.67 110.27 119.139 100.74C115.307 96.9074 110.289 94.4877 104.904 93.8758L95.6143 92.8202C92.2522 92.4381 89.0321 91.2493 86.2284 89.3549L80.5223 85.4994C74.7355 81.5894 67.9112 79.5 60.9273 79.5H49V48H129.324C125.397 49.9823 122.044 53.0688 119.739 56.9883L125.772 60.5374L119.739 56.9883L119.364 57.6243C114.996 65.0499 115.331 74.3346 120.222 81.4267C124.356 87.4208 131.172 91 138.454 91H187V136.325L186.65 135.757C185.452 133.816 183.94 132.088 182.175 130.644L181.203 129.849C178.161 127.36 174.351 126 170.421 126C166.14 126 162.017 127.612 158.871 130.516L157.259 132.004C155.337 133.778 153.736 135.873 152.529 138.194L128.49 184.424L116.097 160.377C114.469 157.218 111.994 154.574 108.948 152.741C105.967 150.948 102.554 150 99.0752 150H98.5493C95.1933 150 91.8859 150.803 88.9031 152.341L88.6584 152.467C85.2613 154.219 82.3747 156.82 80.2786 160.016ZM99.4789 129.5H49V93.5H60.9273C65.1176 93.5 69.2122 94.7536 72.6843 97.0996L78.3904 100.955C83.0633 104.112 88.43 106.094 94.0335 106.731L103.323 107.786C105.561 108.041 107.647 109.046 109.24 110.639C113.201 114.6 113.116 121.049 109.052 124.904L107.639 126.245C105.436 128.335 102.515 129.5 99.4789 129.5ZM165.881 53.7205L174.576 48H187V77H138.454C135.775 77 133.268 75.6834 131.747 73.4784C129.948 70.8696 129.825 67.4541 131.432 64.7225L131.806 64.0866C133.477 61.2448 136.528 59.5 139.825 59.5H146.581C153.441 59.5 160.15 57.4908 165.881 53.7205ZM174.735 143.108L187 162.986V251H162.798L136.344 199.665L164.95 144.653C165.411 143.767 166.022 142.968 166.755 142.291L168.367 140.803C168.926 140.287 169.659 140 170.421 140C171.119 140 171.797 140.242 172.338 140.684L173.31 141.48C173.872 141.94 174.354 142.49 174.735 143.108ZM35 43C35 38.0294 39.0294 34 44 34H192C196.971 34 201 38.0294 201 43V256C201 260.971 196.971 265 192 265H44C39.0294 265 35 260.971 35 256V43ZM238 45H222V61H238V45ZM222 77H238V93H222V77ZM238 109H222V125H238V109ZM222 141H238V157H222V141ZM238 173H222V189H238V173ZM222 205H238V221H222V205ZM238 237H222V253H238V237ZM222 269H238V285H222V269ZM286 182H310V197H286V182ZM326 182H374V197H326V182ZM430 182H390V197H430V182ZM333 214H261V229H333V214ZM397 214H349V229H397V214ZM413 214H430V229H413V214ZM261 246H286V261H261V246ZM302 261V246H366V261H302ZM430 246H382V261H430V246ZM334 94.5C334 93.6069 334.025 92.7194 334.074 91.8383C345.331 93.8866 357.116 91.4402 366.75 84.7309L377.5 77.2442L369.5 65.7558L358.749 73.2425C352.313 77.7249 344.461 79.4026 336.93 78.1256C343.664 59.985 361.267 47 382 47C408.57 47 430 68.3266 430 94.5C430 120.673 408.57 142 382 142C366.749 142 353.192 134.974 344.408 124.038C352.98 123.931 361.478 121.296 368.75 116.231L379.5 108.744L371.5 97.2558L360.749 104.742C353.558 109.751 344.601 111.258 336.297 109.054C334.805 104.465 334 99.5735 334 94.5ZM320 94.5C320 92.0455 320.145 89.6251 320.426 87.2467C312.348 84.5314 303.423 85.4261 295.994 89.8164L279.561 99.5265L272.439 87.4735L288.871 77.7634C299.453 71.5108 312.091 70.0682 323.674 73.5882C332.309 49.8915 355.199 33 382 33C416.181 33 444 60.4744 444 94.5C444 128.526 416.181 156 382 156C356.965 156 335.343 141.261 325.564 120.005L325.489 119.97C316.662 115.859 306.377 116.363 297.994 121.316L281.561 131.026L274.439 118.974L290.871 109.263C299.96 103.893 310.566 102.071 320.718 103.894C320.245 100.832 320 97.695 320 94.5Z" fill="white"/>
</svg>
